<svg width="25" height="25" viewBox="0 0 25 25" fill="none" xmlns="http://www.w3.org/2000/svg">
<path fill-rule="evenodd" clip-rule="evenodd" d="M7.77603 1.11025C8.99791 1.054 9.38749 1.0415 12.5 1.0415C15.6125 1.0415 16.0021 1.05505 17.2229 1.11025C18.4437 1.16546 19.2771 1.36025 20.0062 1.64255C20.7698 1.93109 21.4625 2.38213 22.0354 2.96546C22.6187 3.53734 23.0687 4.229 23.3562 4.99359C23.6396 5.72275 23.8333 6.55609 23.8896 7.77484C23.9458 8.9988 23.9583 9.38838 23.9583 12.4998C23.9583 15.6123 23.9448 16.0019 23.8896 17.2238C23.8344 18.4425 23.6396 19.2759 23.3562 20.005C23.0687 20.7697 22.618 21.4625 22.0354 22.0353C21.4625 22.6186 20.7698 23.0686 20.0062 23.3561C19.2771 23.6394 18.4437 23.8332 17.225 23.8894C16.0021 23.9457 15.6125 23.9582 12.5 23.9582C9.38749 23.9582 8.99791 23.9446 7.77603 23.8894C6.55728 23.8342 5.72395 23.6394 4.99478 23.3561C4.23012 23.0685 3.5373 22.6178 2.96457 22.0353C2.38164 21.463 1.93053 20.7705 1.6427 20.0061C1.36041 19.2769 1.16666 18.4436 1.11041 17.2248C1.05416 16.0009 1.04166 15.6113 1.04166 12.4998C1.04166 9.38734 1.0552 8.99775 1.11041 7.77692C1.16561 6.55609 1.36041 5.72275 1.6427 4.99359C1.93095 4.22909 2.38241 3.53662 2.96561 2.96442C3.53753 2.38161 4.22965 1.93051 4.99374 1.64255C5.72291 1.36025 6.55624 1.1665 7.77499 1.11025H7.77603ZM17.1302 3.17275C15.9219 3.11755 15.5594 3.10609 12.5 3.10609C9.44061 3.10609 9.07811 3.11755 7.86978 3.17275C6.75207 3.2238 6.14582 3.41025 5.74166 3.56755C5.20728 3.77588 4.82499 4.02275 4.42395 4.4238C4.04379 4.79364 3.75122 5.24388 3.5677 5.7415C3.41041 6.14567 3.22395 6.75192 3.17291 7.86963C3.1177 9.07796 3.10624 9.44046 3.10624 12.4998C3.10624 15.5592 3.1177 15.9217 3.17291 17.13C3.22395 18.2478 3.41041 18.854 3.5677 19.2582C3.75103 19.755 4.04374 20.2061 4.42395 20.5759C4.79374 20.9561 5.24478 21.2488 5.74166 21.4321C6.14582 21.5894 6.75207 21.7759 7.86978 21.8269C9.07811 21.8821 9.43957 21.8936 12.5 21.8936C15.5604 21.8936 15.9219 21.8821 17.1302 21.8269C18.2479 21.7759 18.8542 21.5894 19.2583 21.4321C19.7927 21.2238 20.175 20.9769 20.576 20.5759C20.9562 20.2061 21.2489 19.755 21.4323 19.2582C21.5896 18.854 21.776 18.2478 21.8271 17.13C21.8823 15.9217 21.8937 15.5592 21.8937 12.4998C21.8937 9.44046 21.8823 9.07796 21.8271 7.86963C21.776 6.75192 21.5896 6.14567 21.4323 5.7415C21.2239 5.20713 20.9771 4.82484 20.576 4.4238C20.2062 4.04366 19.7559 3.7511 19.2583 3.56755C18.8542 3.41025 18.2479 3.2238 17.1302 3.17275ZM11.0364 16.0321C11.8538 16.3724 12.7639 16.4183 13.6114 16.162C14.4588 15.9058 15.191 15.3633 15.6829 14.6272C16.1748 13.8911 16.3959 13.007 16.3084 12.126C16.2209 11.245 15.8302 10.4217 15.2031 9.79671C14.8034 9.39721 14.32 9.09131 13.7878 8.90103C13.2557 8.71076 12.6879 8.64084 12.1255 8.69631C11.5631 8.75179 11.0199 8.93127 10.5352 9.22185C10.0505 9.51242 9.63618 9.90686 9.32218 10.3768C9.00818 10.8467 8.80227 11.3803 8.71928 11.9394C8.63628 12.4984 8.67827 13.0689 8.84222 13.6097C9.00616 14.1506 9.28799 14.6484 9.66741 15.0673C10.0468 15.4861 10.5144 15.8157 11.0364 16.0321ZM8.33541 8.33525C8.88231 7.78835 9.53157 7.35453 10.2461 7.05855C10.9607 6.76257 11.7266 6.61023 12.5 6.61023C13.2734 6.61023 14.0393 6.76257 14.7538 7.05855C15.4684 7.35453 16.1177 7.78835 16.6646 8.33525C17.2115 8.88215 17.6453 9.53142 17.9413 10.246C18.2373 10.9605 18.3896 11.7264 18.3896 12.4998C18.3896 13.2733 18.2373 14.0391 17.9413 14.7537C17.6453 15.4683 17.2115 16.1175 16.6646 16.6644C15.5601 17.7689 14.062 18.3894 12.5 18.3894C10.938 18.3894 9.43992 17.7689 8.33541 16.6644C7.23089 15.5599 6.61038 14.0619 6.61038 12.4998C6.61038 10.9378 7.23089 9.43977 8.33541 8.33525ZM19.6958 7.48734C19.8313 7.35949 19.9398 7.20575 20.0149 7.03523C20.0899 6.8647 20.13 6.68085 20.1327 6.49456C20.1354 6.30827 20.1007 6.12332 20.0307 5.95068C19.9607 5.77804 19.8567 5.6212 19.7249 5.48946C19.5932 5.35772 19.4364 5.25375 19.2637 5.18371C19.0911 5.11367 18.9061 5.07898 18.7199 5.08169C18.5336 5.08441 18.3497 5.12448 18.1792 5.19952C18.0087 5.27457 17.8549 5.38306 17.7271 5.51859C17.4784 5.78216 17.3423 6.13226 17.3476 6.49456C17.3529 6.85686 17.4991 7.20284 17.7554 7.45905C18.0116 7.71526 18.3576 7.86153 18.7199 7.86682C19.0822 7.8721 19.4323 7.73597 19.6958 7.48734Z" fill="white"/>
</svg>
