<svg width="42" height="59" viewBox="0 0 42 59" fill="none" xmlns="http://www.w3.org/2000/svg">
<path d="M41.6401 10.7245C41.1252 5.22841 37.1772 1.13827 32.5425 0.243547C28.0795 -0.587263 24.7609 0.690908 22.1289 4.33369C21.614 5.03668 21.099 5.9314 20.6413 6.82612C20.1263 7.84866 19.5541 8.9351 18.9819 9.95764C18.8675 10.2133 18.6959 10.4689 18.5242 10.7245C16.9221 13.3448 14.7478 15.1342 11.9442 15.8372C11.6009 15.9011 11.2576 15.965 10.9143 16.0289C9.59825 16.2207 8.33947 16.4763 7.02347 16.668C5.42137 16.9237 3.99093 17.6906 2.84658 18.777H2.78936C1.3017 20.183 0.271784 22.1002 0.0429132 24.0814V24.1453C-0.0143044 24.6566 -0.0143044 25.1679 0.0429132 25.743V58.0807H41.7546V25.4874C41.7546 23.2506 41.8118 21.0138 41.8118 18.777C41.869 16.0289 41.869 13.3448 41.6401 10.7245ZM29.9677 37.5022V36.0962H34.8885V37.5022H29.9677ZM34.8885 38.333V39.739H29.9677V38.333H34.8885ZM29.9677 35.3293V33.9233H34.8885V35.3293H29.9677ZM29.9677 25.6791H34.8885V33.0286H29.9677V25.6791ZM26.3058 42.1675H28.2512V48.5584H26.3058V42.1675ZM18.5242 25.6791H23.4449V35.3293H18.5242V25.6791ZM18.5242 37.5022V36.0962H23.4449V37.5022H18.5242ZM23.4449 38.333V39.739H18.5242V38.333H23.4449ZM7.02347 25.6791H11.9442V37.5022H7.02347V25.6791ZM7.02347 38.333H11.9442V39.739H7.02347V38.333ZM8.85443 53.4793C9.25495 53.4793 9.65547 53.2876 9.94156 52.9041L10.571 53.5432C10.1704 54.1184 9.54104 54.4379 8.79721 54.4379C7.4812 54.4379 6.5085 53.4154 6.5085 51.8816C6.5085 50.4117 7.4812 49.3253 8.79721 49.3253C9.54104 49.3253 10.1704 49.6448 10.571 50.22L9.94156 50.8591C9.65547 50.4756 9.31217 50.2839 8.85443 50.2839C8.05338 50.2839 7.4812 50.923 7.4812 51.8177C7.4812 52.8402 8.05338 53.4793 8.85443 53.4793ZM11.8297 45.6186L10.571 47.9832H9.71269L8.45391 45.7464V48.5584H6.68016V42.1675H8.28225L10.1704 45.5547L12.0014 42.1675H13.6035V48.5584H11.8297V45.6186ZM16.4644 54.374H13.3746V49.517H14.3473V53.4793H16.4644V54.374V54.374ZM14.4618 45.6825V42.1675H16.4072V45.6186C16.4072 46.5772 16.7505 46.9606 17.2654 46.9606C17.7804 46.9606 18.1237 46.5772 18.1237 45.6186V42.1675H20.0119V45.6825C20.0119 47.5997 18.9819 48.6862 17.2082 48.6862C15.4345 48.6862 14.4618 47.5997 14.4618 45.6825ZM22.3006 54.374L21.9 53.3515H19.9546L19.5541 54.374H18.5242L20.4124 49.517H21.3851L23.2733 54.374H22.3006ZM23.0444 48.6862C22.0717 48.6862 21.099 48.4305 20.5268 48.0471L21.1562 46.4494C21.6712 46.8328 22.415 47.0246 23.0444 47.0246C23.6166 47.0246 23.7882 46.8967 23.7882 46.705C23.7882 45.8742 20.6413 46.5772 20.6413 44.1487C20.6413 42.9344 21.5567 41.9758 23.3305 41.9758C24.0743 41.9758 24.8754 42.1675 25.5048 42.551L24.9326 44.0848C24.3604 43.7652 23.8454 43.6374 23.3305 43.6374C22.7583 43.6374 22.5867 43.8291 22.5867 44.0209C22.5867 44.7878 25.7336 44.1487 25.7336 46.5133C25.7336 47.7275 24.8181 48.6862 23.0444 48.6862ZM27.3357 54.5018C26.6491 54.5018 25.9625 54.2462 25.6192 53.9267L25.9625 53.0959C26.3058 53.4154 26.878 53.6071 27.3357 53.6071C27.9079 53.6071 28.1368 53.4154 28.1368 53.0959C28.1368 52.2011 25.6764 52.8402 25.6764 50.9869C25.6764 50.1561 26.2486 49.4531 27.4502 49.4531C27.9651 49.4531 28.5373 49.5809 28.9378 49.9004L28.6517 50.7312C28.2512 50.4756 27.8507 50.3478 27.4502 50.3478C26.878 50.3478 26.6491 50.6034 26.6491 50.923C26.6491 51.8177 29.1095 51.1786 29.1095 52.968C29.1095 53.7989 28.5373 54.5018 27.3357 54.5018ZM33.2864 54.5018C32.5997 54.5018 31.9131 54.2462 31.5698 53.9267L31.9131 53.0959C32.2564 53.4154 32.8286 53.6071 33.2864 53.6071C33.8585 53.6071 34.0874 53.4154 34.0874 53.0959C34.0874 52.2011 31.627 52.8402 31.627 50.9869C31.627 50.1561 32.1992 49.4531 33.4008 49.4531C33.9157 49.4531 34.4879 49.5809 34.8885 49.9004L34.6024 50.7312C34.2018 50.4756 33.8013 50.3478 33.4008 50.3478C32.8286 50.3478 32.5997 50.6034 32.5997 50.923C32.5997 51.8177 35.0601 51.1786 35.0601 52.968C35.1173 53.7989 34.4879 54.5018 33.2864 54.5018ZM32.943 48.5584L31.5126 46.4494L31.0549 46.9606V48.5584H29.1667V42.1675H31.0549V44.4682L32.943 42.1675H35.0601L32.7714 44.9795L35.1745 48.5584H32.943Z" fill="white"/>
</svg>
